<svg width="597" height="57" viewBox="0 0 597 57" fill="none" xmlns="http://www.w3.org/2000/svg">
<g clip-path="url(#clip0_3979_18043)">
<rect width="597" height="57" fill="#F6F5F1"/>
<path d="M227.544 40.3182V22.5546L221.171 40.3182H217.223L210.576 22.5546V40.3182H206.004V15.7324H212.306L219.163 34.12L225.811 15.7324H232.113V40.3182H227.541H227.544Z" fill="black"/>
<path d="M247.642 15.7305H242.346L233.688 40.3162H238.28L244.978 20.7517L248.441 30.8622L251.667 40.3162H256.301L247.642 15.7305Z" fill="black"/>
<path d="M258.016 40.3182V15.7324H262.587V40.3182H258.016Z" fill="black"/>
<path d="M281.805 40.3182L270.724 23.0395V40.3182H266.152V15.7324H270.999L282.08 33.0111V15.7324H286.651V40.3182H281.805Z" fill="black"/>
<path d="M314.976 19.6105L311.584 22.2069C309.887 20.199 308.674 19.436 306.217 19.436C303.896 19.436 302.615 20.613 302.615 22.2069C302.615 24.1793 304.52 24.9068 307.498 25.7377C313.385 27.3997 315.219 29.2686 315.219 33.1838C315.219 37.5131 311.652 40.766 306.631 40.766C302.302 40.766 299.22 39.1396 297.145 35.1918L301.128 33.1129C302.618 35.3633 304.038 36.6112 306.702 36.6112C309.23 36.6112 310.65 35.3307 310.65 33.3909C310.65 31.105 308.503 30.481 305.732 29.6855C299.498 27.8846 298.044 25.8412 298.044 22.3459C298.044 18.3301 301.438 15.2812 306.424 15.2812C310.44 15.2812 313.143 16.9077 314.976 19.6105Z" fill="black"/>
<path d="M327.998 19.9562V40.3162H323.426V19.9562H316.465V15.7305H327.995V19.9562H327.998Z" fill="black"/>
<path d="M330.73 19.9562V15.7305H334.953V19.9562H330.73Z" fill="black"/>
<path d="M257.957 19.9562V15.7305H262.18V19.9562H257.957Z" fill="black"/>
<path d="M242.883 35.093V30.8672H247.106V35.093H242.883Z" fill="black"/>
<rect x="356.15" y="11.1966" width="33.6534" height="33.6534" stroke="black" stroke-width="2.39313"/>
<rect x="361.234" y="16.2812" width="23.4826" height="23.4826" fill="#07D5A5"/>
</g>
<defs>
<clipPath id="clip0_3979_18043">
<rect width="597" height="57" fill="white"/>
</clipPath>
</defs>
</svg>
